# xmcd CD database file
#
# Track frame offsets:
#	150
#	57995
#	90522
#	136255
#	182455
#	204460
#
# Disc length: 3320 seconds
#
# Revision: 0
# Processed by: cddbd v1.5PL3 Copyright (c) Steve Scherf et al.
# Submitted via: CDex 1.50beta10
#
DISCID=480cf606
DTITLE=Abash - Jazz
DYEAR=1995
DGENRE=Jazz
TTITLE0=East of the sun
TTITLE1=Laphroaig
TTITLE2=Fisk
TTITLE3=Leutke`s Leap
TTITLE4=Avenue
TTITLE5=Sophisticated lady
EXTD=YEAR: 1995
EXTT0=
EXTT1=
EXTT2=
EXTT3=
EXTT4=
EXTT5=
PLAYORDER=
